<svg height="99.176" width="99.176" xmlns="http://www.w3.org/2000/svg"><path d="M71.14 63.178a4.188 4.188 0 00-4.178 4.178v7.223c0 .754-.623 1.383-1.385 1.383a1.398 1.398 0 01-1.404-1.383V31.584a4.17 4.17 0 00-4.178-4.178 4.175 4.175 0 00-4.174 4.178v40.201a1.39 1.39 0 01-1.389 1.383 1.392 1.392 0 01-1.404-1.383V26.914a4.177 4.177 0 00-4.18-4.174 4.175 4.175 0 00-4.175 4.174v44.871a1.39 1.39 0 01-1.402 1.383c-.76 0-1.387-.617-1.387-1.383V36.223a4.18 4.18 0 00-4.178-4.178 4.17 4.17 0 00-4.176 4.178v49.496l-.102-14.273c-1.674-2.568-4.939-3.439-7.334-1.953-2.383 1.504-2.967 4.801-1.32 7.373 0 0 3.555 20.311 7.436 26.203 3.877 5.904 10.166 10.518 21.923 10.518 19.459 0 21.201-15.021 21.201-19.512v-26.72c.001-2.3-1.882-4.177-4.194-4.177z" fill="#FFF" stroke="#58595B" stroke-miterlimit="10" stroke-width="3.483"/><path d="M71.14 63.178a4.188 4.188 0 00-4.178 4.178v7.223c0 .754-.623 1.383-1.385 1.383a1.398 1.398 0 01-1.404-1.383V31.584a4.17 4.17 0 00-4.178-4.178 4.175 4.175 0 00-4.174 4.178v40.201a1.39 1.39 0 01-1.389 1.383 1.392 1.392 0 01-1.404-1.383V26.914a4.177 4.177 0 00-4.18-4.174 4.175 4.175 0 00-4.175 4.174v44.871a1.39 1.39 0 01-1.402 1.383c-.76 0-1.387-.617-1.387-1.383V36.223a4.18 4.18 0 00-4.178-4.178 4.17 4.17 0 00-4.176 4.178v49.496l-.102-14.273c-1.674-2.568-4.939-3.439-7.334-1.953-2.383 1.504-2.967 4.801-1.32 7.373 0 0 3.555 20.311 7.436 26.203 3.877 5.904 10.166 10.518 21.923 10.518 19.459 0 21.201-15.021 21.201-19.512v-26.72c.001-2.3-1.882-4.177-4.194-4.177z" fill="#C70101" stroke="#58595B" stroke-linecap="round" stroke-linejoin="round" stroke-miterlimit="10"/><path clip-rule="evenodd" d="M60.179-6.521c-.861-.609-2.156-.01-1.324 1.205-1.615 4.562-1.887 9.335-3.064 13.963.441.801 1.061.463 1.615.539.844-3.689 1.268-7.447 2.188-11.125 1.449 6.299 1.787 12.832.875 19.048-.133.902-.434 2.133-.357 2.705-.273.193-.189.311-.326.727.256.832 1.115 1.137 1.766.918.305-1.465.422-2.957.562-4.443.139-1.477.383-2.977.287-4.488.283-.451-.094-1.005.16-1.462-.211-.156.049-.594-.268-.538.512-3.755-.473-8.298-1.018-12.343 1.359 2.574 2.92 6.301 4.648 9.096.398.488 1.57.393 1.703-.015.158-.494-.768-2.269-1.143-3.084-1.695-3.705-3.601-8.144-6.304-10.703zm-13.16-7.648c-.861-.609-2.156-.01-1.324 1.205-1.613 4.562-1.887 9.335-3.062 13.963.439.801 1.059.463 1.615.539.842-3.689 1.268-7.447 2.185-11.125 1.449 6.298 1.789 12.832.877 19.047-.133.902-.434 2.133-.357 2.706-.273.193-.191.31-.328.726.256.832 1.117 1.137 1.766.918.307-1.465.422-2.957.564-4.444.139-1.477.381-2.977.287-4.487.281-.451-.096-1.006.16-1.463-.211-.156.047-.594-.27-.538.514-3.755-.471-8.298-1.016-12.343 1.357 2.574 2.918 6.301 4.648 9.096.396.488 1.568.393 1.701-.015.16-.494-.768-2.269-1.141-3.084-1.696-3.703-3.6-8.143-6.305-10.701zM33.166-6.521c-.861-.609-2.156-.01-1.324 1.205-1.615 4.562-1.887 9.335-3.064 13.963.441.801 1.061.463 1.615.539.844-3.689 1.268-7.447 2.188-11.125 1.449 6.299 1.787 12.832.875 19.048-.133.902-.434 2.133-.357 2.705-.273.193-.189.311-.326.727.256.832 1.115 1.137 1.766.918.305-1.465.422-2.957.562-4.443.139-1.477.383-2.977.287-4.488.283-.451-.094-1.005.16-1.462-.211-.156.049-.594-.268-.538.512-3.755-.473-8.298-1.018-12.343 1.359 2.574 2.92 6.301 4.648 9.096.398.488 1.57.393 1.703-.015.158-.494-.768-2.269-1.143-3.084-1.695-3.705-3.601-8.144-6.304-10.703z" fill="#939598" fill-rule="evenodd"/></svg>