<?xml version="1.0" ?><!DOCTYPE svg  PUBLIC '-//W3C//DTD SVG 1.1//EN'  'http://www.w3.org/Graphics/SVG/1.1/DTD/svg11.dtd'><svg enable-background="new 0 0 99.176 99.176" height="99.176px" id="Layer_1" version="1.1" viewBox="0 0 99.176 99.176" width="99.176px" xml:space="preserve" xmlns="http://www.w3.org/2000/svg" xmlns:xlink="http://www.w3.org/1999/xlink"><g><path d="M71.14,63.178   c-2.299,0-4.178,1.877-4.178,4.178v7.223c0,0.754-0.623,1.383-1.385,1.383c-0.779,0-1.404-0.629-1.404-1.383V31.584   c0-2.314-1.865-4.178-4.178-4.178c-2.299,0-4.174,1.863-4.174,4.178v40.201c0,0.766-0.629,1.383-1.389,1.383   c-0.775,0-1.404-0.617-1.404-1.383V26.914c0-2.299-1.865-4.174-4.18-4.174c-2.311,0-4.175,1.875-4.175,4.174v44.871   c0,0.766-0.625,1.383-1.402,1.383c-0.76,0-1.387-0.617-1.387-1.383V36.223c0-2.312-1.877-4.178-4.178-4.178   c-2.311,0-4.176,1.865-4.176,4.178v49.496l-0.102-14.273c-1.674-2.568-4.939-3.439-7.334-1.953   c-2.383,1.504-2.967,4.801-1.32,7.373c0,0,3.555,20.311,7.436,26.203c3.877,5.904,10.166,10.518,21.923,10.518   c19.459,0,21.201-15.021,21.201-19.512V67.355C75.335,65.055,73.452,63.178,71.14,63.178z" fill="#FFFFFF" stroke="#58595B" stroke-miterlimit="10" stroke-width="3.4835"/><path d="M71.14,63.178   c-2.299,0-4.178,1.877-4.178,4.178v7.223c0,0.754-0.623,1.383-1.385,1.383c-0.779,0-1.404-0.629-1.404-1.383V31.584   c0-2.314-1.865-4.178-4.178-4.178c-2.299,0-4.174,1.863-4.174,4.178v40.201c0,0.766-0.629,1.383-1.389,1.383   c-0.775,0-1.404-0.617-1.404-1.383V26.914c0-2.299-1.865-4.174-4.18-4.174c-2.311,0-4.175,1.875-4.175,4.174v44.871   c0,0.766-0.625,1.383-1.402,1.383c-0.76,0-1.387-0.617-1.387-1.383V36.223c0-2.312-1.877-4.178-4.178-4.178   c-2.311,0-4.176,1.865-4.176,4.178v49.496l-0.102-14.273c-1.674-2.568-4.939-3.439-7.334-1.953   c-2.383,1.504-2.967,4.801-1.32,7.373c0,0,3.555,20.311,7.436,26.203c3.877,5.904,10.166,10.518,21.923,10.518   c19.459,0,21.201-15.021,21.201-19.512V67.355C75.335,65.055,73.452,63.178,71.14,63.178z" fill="#C70101" stroke="#58595B" stroke-linecap="round" stroke-linejoin="round" stroke-miterlimit="10"/><path clip-rule="evenodd" d="M60.179-6.521c-0.861-0.609-2.156-0.01-1.324,1.205   c-1.615,4.562-1.887,9.335-3.064,13.963c0.441,0.801,1.061,0.463,1.615,0.539c0.844-3.689,1.268-7.447,2.188-11.125   c1.449,6.299,1.787,12.832,0.875,19.048c-0.133,0.902-0.434,2.133-0.357,2.705c-0.273,0.193-0.189,0.311-0.326,0.727   c0.256,0.832,1.115,1.137,1.766,0.918c0.305-1.465,0.422-2.957,0.562-4.443c0.139-1.477,0.383-2.977,0.287-4.488   c0.283-0.451-0.094-1.005,0.16-1.462c-0.211-0.156,0.049-0.594-0.268-0.538c0.512-3.755-0.473-8.298-1.018-12.343   c1.359,2.574,2.92,6.301,4.648,9.096c0.398,0.488,1.57,0.393,1.703-0.015c0.158-0.494-0.768-2.269-1.143-3.084   C64.788,0.477,62.882-3.962,60.179-6.521L60.179-6.521z" fill="#939598" fill-rule="evenodd"/><path clip-rule="evenodd" d="M47.019-14.169c-0.861-0.609-2.156-0.01-1.324,1.205   c-1.613,4.562-1.887,9.335-3.062,13.963c0.439,0.801,1.059,0.463,1.615,0.539c0.842-3.689,1.268-7.447,2.185-11.125   C47.882-3.289,48.222,3.245,47.31,9.46c-0.133,0.902-0.434,2.133-0.357,2.706c-0.273,0.193-0.191,0.31-0.328,0.726   c0.256,0.832,1.117,1.137,1.766,0.918c0.307-1.465,0.422-2.957,0.564-4.444c0.139-1.477,0.381-2.977,0.287-4.487   c0.281-0.451-0.096-1.006,0.16-1.463c-0.211-0.156,0.047-0.594-0.27-0.538c0.514-3.755-0.471-8.298-1.016-12.343   c1.357,2.574,2.918,6.301,4.648,9.096c0.396,0.488,1.568,0.393,1.701-0.015c0.16-0.494-0.768-2.269-1.141-3.084   C51.628-7.171,49.724-11.611,47.019-14.169L47.019-14.169z" fill="#939598" fill-rule="evenodd"/><path clip-rule="evenodd" d="M33.166-6.521c-0.861-0.609-2.156-0.01-1.324,1.205   c-1.615,4.562-1.887,9.335-3.064,13.963c0.441,0.801,1.061,0.463,1.615,0.539c0.844-3.689,1.268-7.447,2.188-11.125   c1.449,6.299,1.787,12.832,0.875,19.048c-0.133,0.902-0.434,2.133-0.357,2.705c-0.273,0.193-0.189,0.311-0.326,0.727   c0.256,0.832,1.115,1.137,1.766,0.918c0.305-1.465,0.422-2.957,0.562-4.443c0.139-1.477,0.383-2.977,0.287-4.488   c0.283-0.451-0.094-1.005,0.16-1.462c-0.211-0.156,0.049-0.594-0.268-0.538c0.512-3.755-0.473-8.298-1.018-12.343   c1.359,2.574,2.92,6.301,4.648,9.096c0.398,0.488,1.57,0.393,1.703-0.015c0.158-0.494-0.768-2.269-1.143-3.084   C37.775,0.477,35.869-3.962,33.166-6.521L33.166-6.521z" fill="#939598" fill-rule="evenodd"/></g></svg>